<svg width="26" height="30" viewBox="0 0 26 30" fill="none" xmlns="http://www.w3.org/2000/svg">
<path fill-rule="evenodd" clip-rule="evenodd" d="M3.98014 9.25768L3.75139 9.49808C0.230725 13.3051 -0.325569 19.0104 2.45835 23.7941C4.58068 27.5584 8.82551 30.0012 13.1904 30.0012H13.7511C18.2762 29.801 22.6411 26.8776 24.5633 22.793C25.6045 20.5505 25.9649 17.9876 25.5244 15.5448C24.896 12.181 22.8004 9.46554 21.0328 7.58734L20.5988 7.13535C19.4375 5.93402 18.3162 4.69262 17.235 3.45121L15.8835 1.90942C15.4229 1.38883 14.9524 0.868246 14.4719 0.367689C14.2316 0.127394 13.8712 -0.0327263 13.5108 0.00728455C13.1504 0.047372 12.83 0.24758 12.6298 0.527885C10.187 4.01182 9.86664 7.81614 11.7888 10.9797C12.0691 11.3801 12.2694 11.8206 12.4696 12.2611L12.6595 12.623L12.7499 12.8217C13.1504 13.7827 13.1104 14.8239 12.5897 15.7049C11.9316 16.8018 10.8811 16.9667 10.2442 16.9481L10.0484 16.9362L9.88985 16.9168L9.67145 16.8751C8.78362 16.673 7.76874 16.0342 7.504 14.8239V14.7839L7.48721 14.5289C7.48441 14.4358 7.48686 14.3205 7.504 14.1832V14.1432C7.51281 14.0279 7.52124 13.9147 7.52929 13.8037L7.57315 13.1625L7.62293 12.2917L7.64606 11.7689L7.6667 11.066L7.67171 10.4549L7.6625 9.92849L7.64048 9.48007L7.61937 9.22105L7.59359 8.9916L7.56358 8.78969L7.52973 8.61328L7.49248 8.46036L7.45222 8.32889L7.40938 8.21685L7.36437 8.12219L7.2937 8.00838L7.24509 7.94832L7.17096 7.87689L7.09663 7.82175L6.90055 7.70343C6.56569 7.52984 6.17809 7.518 5.82217 7.69596L5.78216 7.73597C5.06135 8.13638 4.46065 8.73708 3.98014 9.25768ZM13.5909 27.6385C9.94681 27.7986 6.26267 25.7963 4.50066 22.6328C2.37832 18.8685 2.69864 14.4235 5.2614 11.42C5.2534 11.5722 5.247 11.7292 5.24124 11.89L5.20665 12.8933C5.19256 13.2381 5.17333 13.5905 5.14129 13.9429C5.10128 14.4635 5.10128 14.9441 5.22139 15.3445C5.62188 17.3467 7.3038 18.9085 9.46622 19.2689C11.6286 19.6294 13.631 18.7083 14.7122 16.9063C15.6332 15.3846 15.7133 13.4623 14.9925 11.8205C14.9525 11.8205 14.9525 11.7805 14.9525 11.7805C14.8323 11.5803 14.7523 11.4201 14.6722 11.2199C14.4319 10.6993 14.1916 10.2188 13.8712 9.69819L13.7256 9.44552C12.4366 7.08791 13.098 4.75741 13.8712 3.21083C14.4319 3.81153 14.9925 4.45224 15.5131 5.05294C15.8223 5.39529 16.1315 5.74372 16.4424 6.09405C17.2589 7.01408 18.087 7.94715 18.957 8.81718C21.3997 11.3801 22.7212 13.6626 23.1617 15.9452C23.4821 17.9075 23.2017 19.9498 22.3608 21.7518C20.7991 25.0755 17.2751 27.4382 13.5909 27.6385Z" fill="#AAAACF"/>
</svg>
