<svg width="50" height="36" viewBox="0 0 50 36" fill="none" xmlns="http://www.w3.org/2000/svg">
<path fill-rule="evenodd" clip-rule="evenodd" d="M41.6348 0.00572777C46.7527 0.0164421 49.6241 2.87001 49.6378 7.9718C49.6551 14.5676 49.6688 21.1629 49.6414 27.7581C49.6194 32.9581 46.8991 35.7474 41.7015 35.7712C30.4408 35.8218 19.1789 35.8307 7.91816 35.7783C2.71994 35.7545 0.0211349 32.9272 0.0110159 27.7129C-0.00207936 21.117 -0.00624603 14.5218 0.0139921 7.92656C0.0300635 2.84739 2.93066 0.00870396 8.0628 0.00394206C13.6955 -0.000819847 19.3277 0.00275158 24.9598 0.00334682C30.5182 0.00334682 36.0765 -0.00558175 41.6348 0.00572777Z" fill="#FFD454"/>
<path fill-rule="evenodd" clip-rule="evenodd" d="M29.6955 34.9438C34.1402 34.9438 38.1402 35.0016 42.1378 34.9277C46.2616 34.8516 48.7092 32.3087 48.7741 28.2004C48.7848 27.5337 48.717 26.8605 48.7872 26.201C48.917 24.9891 48.3313 24.6736 47.2324 24.6867C43.2313 24.7331 39.2295 24.767 35.2289 24.7147C33.8461 24.6968 33.2336 25.1843 33.0973 26.5766C32.8057 29.551 32.0307 32.3754 29.6955 34.9438ZM20.2366 34.9516C17.6223 32.2087 16.9818 29.1998 16.7467 26.0885C16.6646 25.0111 16.2318 24.6748 15.2557 24.6813C10.967 24.7105 6.67828 24.7123 2.38959 24.7492C1.74078 24.7545 1.11816 24.7813 0.881254 25.6843C-0.389579 30.5218 2.70506 34.8391 7.66042 34.9361C11.6473 35.0141 15.6366 34.9516 20.2366 34.9516ZM29.5735 0.886085C31.9848 3.53132 32.7991 6.27954 32.9955 9.20811C33.1086 10.901 33.7688 11.4462 35.4807 11.3623C38.511 11.2135 41.5545 11.3688 44.5908 11.3182C49.6289 11.2343 48.8074 12.0022 48.7896 6.88311C48.7783 3.83787 46.4068 1.05454 43.5396 0.93549C39.0574 0.74918 34.561 0.886085 29.5735 0.886085ZM20.317 0.852752C15.3622 0.852752 10.9217 0.831918 6.48185 0.865847C5.17828 0.875371 4.05506 1.46347 3.08006 2.31287C1.14197 4.00097 0.0699444 8.12835 0.856254 10.5391C1.11697 11.3379 1.71994 11.2867 2.26756 11.2897C6.56697 11.3093 10.867 11.2891 15.1664 11.2885C16.2158 11.2879 16.7098 10.9272 16.7938 9.73608C17.0134 6.60811 17.7193 3.60454 20.317 0.852752ZM41.1283 12.1004V12.1117C38.9801 12.1117 36.8313 12.1426 34.6836 12.0986C33.6313 12.0772 33.2313 12.5022 33.2455 13.542C33.286 16.5051 33.2932 19.4688 33.2646 22.4313C33.2545 23.4789 33.664 23.8635 34.7122 23.851C38.9342 23.8016 43.1574 23.7867 47.3795 23.8111C48.4527 23.8176 48.8116 23.3825 48.8027 22.3557C48.7777 19.4664 48.7616 16.576 48.8438 13.6885C48.8813 12.3748 48.3265 12.0403 47.1289 12.0819C45.1307 12.1504 43.1289 12.1004 41.1283 12.1004ZM8.68482 12.1004C6.53899 12.1004 4.39197 12.1343 2.24733 12.0855C1.19852 12.0617 0.80804 12.4522 0.827087 13.5063C0.880659 16.392 0.911611 19.2795 0.841373 22.1641C0.810421 23.4468 1.31518 23.8462 2.52233 23.8343C6.66578 23.7944 10.8104 23.7653 14.9533 23.8337C16.3551 23.8569 16.7491 23.3033 16.7211 22.001C16.6622 19.2647 16.6342 16.5224 16.7432 13.7885C16.8015 12.3254 16.1557 12.0444 14.9009 12.0837C12.8307 12.1486 10.7568 12.1016 8.68482 12.1004ZM17.7372 17.7468C17.8824 21.5117 17.3205 25.3272 18.2253 29.0432C18.8319 31.5313 19.7283 34.0748 22.4664 34.8569C27.2104 36.2111 30.3247 34.351 31.4521 29.5135C33.0354 22.7164 32.3057 15.8045 32.0807 8.93311C32.033 7.47597 31.6693 6.00216 31.0336 4.64085C30.0188 2.46942 28.8045 0.817037 25.9628 0.758109C22.7432 0.692037 20.0884 1.06823 18.8426 4.55632C18.2622 6.17894 17.7765 7.80097 17.7491 9.51823C17.7051 12.2605 17.7372 15.0039 17.7372 17.7468ZM41.6348 0.00572777C46.7527 0.0164421 49.6241 2.87001 49.6378 7.9718C49.6551 14.5676 49.6688 21.1629 49.6414 27.7581C49.6194 32.9581 46.8991 35.7474 41.7015 35.7712C30.4408 35.8218 19.1789 35.8307 7.91816 35.7783C2.71994 35.7545 0.0211349 32.9272 0.0110159 27.7129C-0.00207936 21.117 -0.00624603 14.5218 0.0139921 7.92656C0.0300635 2.84739 2.93066 0.00870396 8.0628 0.00394206C13.6955 -0.000819847 19.3277 0.00275158 24.9598 0.00334682C30.5182 0.00334682 36.0765 -0.00558175 41.6348 0.00572777Z" fill="#A47D0B"/>
</svg>
