<svg width="39" height="39" viewBox="0 0 39 39" fill="none" xmlns="http://www.w3.org/2000/svg">
<rect opacity="0.15" width="39" height="39" rx="14" fill="#0EAD69"/>
<path fill-rule="evenodd" clip-rule="evenodd" d="M20.0066 21.165L20.3607 21.1634C21.7652 21.1513 23.0183 21.0666 23.8124 20.9206C23.8267 20.9206 24.6143 20.7613 24.8764 20.6599C25.2554 20.5006 25.577 20.2126 25.7808 19.8515C25.9262 19.5624 26 19.2592 26 18.9417C25.9884 18.6922 25.8629 18.2806 25.7576 17.9869L25.664 17.7428C25.0218 16.1261 22.9234 13.0356 21.6402 11.852L21.5505 11.7647L21.1302 11.3753C20.8085 11.1298 20.4153 11 19.9923 11C19.6134 11 19.2344 11.1156 18.9282 11.3469C18.829 11.4161 18.7017 11.5277 18.5942 11.6269L18.1974 12.006C16.8757 13.3105 15.0218 16.1348 14.4076 17.5988C14.3943 17.5988 14.0143 18.5086 14 18.9417V18.9995C14 19.6639 14.3789 20.2846 14.9914 20.6021C15.1588 20.6888 15.4868 20.772 15.7748 20.8352L16.3187 20.949C17.1933 21.0788 18.535 21.165 20.0066 21.165ZM18.4817 27.4967C18.4817 28.3269 19.1613 29 19.9996 29C20.8378 29 21.5175 28.3269 21.5175 27.4967L21.1903 23.7975C21.1903 23.1463 20.6583 22.6183 19.9996 22.6183C19.3419 22.6183 18.8088 23.1463 18.8088 23.7975L18.4817 27.4967Z" fill="#0EAD69"/>
</svg>
