<svg width="21" height="17" viewBox="0 0 21 17" fill="none" xmlns="http://www.w3.org/2000/svg">
<path fill-rule="evenodd" clip-rule="evenodd" d="M16.2376 0C16.8553 0 17.3561 0.500777 17.3561 1.11852H19.4C19.9523 1.11852 20.4 1.56623 20.4 2.11852V3.92818C20.4 6.19725 18.7962 8.08803 16.6692 8.51288C16.3157 9.26483 15.837 9.94545 15.26 10.527C14.317 11.4778 13.1124 12.1642 11.764 12.4673V13.8224H13.4402C14.3177 13.8224 15.029 14.5338 15.029 15.4112C15.029 16.2887 14.3177 17 13.4402 17H6.946C6.06854 17 5.35722 16.2887 5.35722 15.4112C5.35722 14.5338 6.06854 13.8224 6.946 13.8224H8.62226V12.4638C6.45491 11.9723 4.66032 10.4894 3.73084 8.51288C1.60378 8.08803 0 6.19725 0 3.92818V2.11852C0 1.56623 0.447715 1.11852 1 1.11852H3.0441C3.0441 0.500777 3.54487 0 4.16261 0H16.2376ZM0.85 3.39703V2.2C0.85 1.92386 1.07386 1.7 1.35 1.7H1.89811C2.17425 1.7 2.39811 1.92386 2.39811 2.2V5.04571C2.39811 5.64829 2.45078 6.2356 2.55 6.8C1.5474 6.20451 0.85 4.90338 0.85 3.39703ZM19.55 3.39703C19.55 4.90338 18.8529 6.20451 17.85 6.8C17.9495 6.2356 18.0023 5.64829 18.0023 5.04571V2.2C18.0023 1.92386 18.2261 1.7 18.5023 1.7H19.05C19.3261 1.7 19.55 1.92386 19.55 2.2V3.39703Z" fill="#6A64EC"/>
</svg>
