<svg width="39" height="39" viewBox="0 0 39 39" fill="none" xmlns="http://www.w3.org/2000/svg">
<rect opacity="0.146324" width="39" height="39" rx="14" fill="#CD2B37"/>
<path fill-rule="evenodd" clip-rule="evenodd" d="M18.4825 12.5033L18.8097 16.2025C18.8097 16.8537 19.3417 17.3817 20.0004 17.3817C20.6581 17.3817 21.1912 16.8537 21.1912 16.2025L21.5183 12.5033C21.5183 11.6731 20.8387 11 20.0004 11C19.1622 11 18.4825 11.6731 18.4825 12.5033ZM18.7501 28.5141C18.8064 28.5653 18.8495 28.6046 18.8698 28.6247C19.1915 28.8702 19.5847 29 20.0077 29C20.3866 29 20.7656 28.8844 21.0718 28.6531C21.2844 28.5047 21.6258 28.1622 21.6258 28.1622C22.9532 26.9491 24.9502 23.9317 25.5924 22.4012C25.6057 22.4012 25.9857 21.4914 26 21.0583V21.0005C26 20.3361 25.6211 19.7154 25.0086 19.3979C24.7554 19.2668 24.1349 19.1437 23.8408 19.0854C23.746 19.0666 23.6851 19.0545 23.6813 19.051C22.8067 18.9212 21.465 18.835 19.9934 18.835C18.4469 18.835 17.0479 18.9212 16.1876 19.0794C16.1733 19.0794 15.3857 19.2387 15.1236 19.3401C14.7446 19.4994 14.423 19.7874 14.2192 20.1485C14.0738 20.4376 14 20.7408 14 21.0583C14.0154 21.391 14.2335 22.0117 14.336 22.2572C14.9782 23.8739 17.0766 26.9644 18.3598 28.148C18.4934 28.2803 18.6448 28.4181 18.7501 28.5141Z" fill="#CD2B37"/>
</svg>
