<svg width="15" height="18" viewBox="0 0 15 18" fill="none" xmlns="http://www.w3.org/2000/svg">
<path d="M4.25247 0C1.91122 0 0 1.9 0 4.2275L0 8.27506H6.85018L5.32121 6.76456C5.03453 6.47956 5.03453 6.01406 5.32121 5.72906C5.60789 5.44406 6.07614 5.44406 6.36282 5.72906L9.15321 8.49356C9.29655 8.62656 9.373 8.81656 9.373 9.00656C9.373 9.20606 9.29655 9.39606 9.15321 9.52906L6.36282 12.2936C6.21948 12.4361 6.02836 12.5026 5.84679 12.5026C5.65567 12.5026 5.46455 12.4361 5.32121 12.2936C5.03453 12.0086 5.03453 11.5431 5.32121 11.2581L6.85018 9.73806H0V13.7915C0 16.1095 1.91122 18 4.24291 18H10.7475C13.0983 18 15 16.1095 15 13.782V4.218C15 1.9 13.0983 0 10.7666 0H4.25247Z" fill="#AAAACF"/>
</svg>
