<svg width="21" height="21" viewBox="0 0 21 21" fill="none" xmlns="http://www.w3.org/2000/svg">
  <path fill-rule="evenodd" clip-rule="evenodd" d="M16.7045 0C17.8876 0 18.8994 0.420106 19.7396 1.26032C20.5797 2.10063 20.9998 3.1124 21 4.2955V16.7045C21 17.8876 20.5799 18.8993 19.7397 19.7396C18.8991 20.5799 17.8876 21 16.7045 21H4.29539C3.11227 21 2.1005 20.5799 1.26017 19.7396C0.42011 18.8993 0 17.8876 0 16.7045V4.2955C0 3.11219 0.42011 2.10063 1.26017 1.26032C2.1005 0.420106 3.11227 0 4.29539 0H16.7045ZM8.99662 7.9984C8.99662 7.83487 8.99625 7.67133 8.99589 7.50779V7.50761C8.99493 7.06961 8.99396 6.63158 8.99993 6.1937C9.00208 6.03742 8.95658 5.99896 8.81689 6.00002C7.93269 6.00666 7.04842 6.00616 6.16422 6.00184C6.0433 6.00121 6.00123 6.03504 6.00169 6.17177C6.0057 7.3828 6.00588 8.59383 6.00001 9.8048C5.99925 9.96284 6.04893 10.0005 6.18758 9.9996C7.06458 9.99372 7.94158 9.99334 8.81852 9.99998C8.96152 10.0011 9.00161 9.95557 8.99969 9.80311C8.99419 9.36473 8.99507 8.92622 8.99596 8.48772C8.99629 8.32461 8.99662 8.1615 8.99662 7.9984ZM10.9993 7.97869L10.9996 8.64224C10.9999 9.12887 11.0002 9.6155 10.999 10.1022C10.9966 11.1485 10.3648 11.911 9.33785 11.9541C8.06579 12.0076 6.78806 12.0289 5.516 11.9362C4.69516 11.8764 4.01853 11.1172 4.01069 10.2799C3.99637 8.75209 3.99671 7.22405 4.01007 5.69627C4.01791 4.79817 4.77378 4.02449 5.6568 4.01251C6.88911 3.99582 8.1219 3.99575 9.35408 4.01278C10.2391 4.02504 10.9803 4.79803 10.9941 5.69994C11.0022 6.22621 11.0002 6.75261 10.9983 7.27902V7.27903V7.27904V7.27905C10.9974 7.51226 10.9965 7.74548 10.9965 7.97869H10.9993ZM4.00006 15.0071C4.00654 15.5696 4.51578 15.9988 5.18711 15.9992L15.77 15.9989C16.4909 15.9992 17.0046 15.581 17 14.9916C16.9953 14.4168 16.4856 14.0003 15.7849 14.0003L12.4082 14.0001C10.0808 14 9.25152 13.9999 5.20197 14.0002C4.51293 14.0003 3.9935 14.4373 4.00006 15.0071ZM13.3921 5.9992C12.7745 5.99881 12.306 5.56957 12.3001 5.00713C12.294 4.43726 12.7719 4.00028 13.4058 4.00021L14.0845 4.00015L15.7821 4.00028C16.4268 4.00028 16.8957 4.41676 16.9 4.99158C16.9043 5.58102 16.4316 5.9992 15.7684 5.99889L13.3921 5.9992ZM14.8772 4C14.4173 4.00001 13.6936 4.00007 14.0845 4.00015C15.5338 4.00003 15.3376 3.99999 14.8772 4ZM12.3001 10.0071C12.306 10.5696 12.7745 10.9988 13.3921 10.9992L15.7684 10.9989C16.4316 10.9992 16.9043 10.581 16.9 9.99158C16.8957 9.41676 16.4268 9.00028 15.7821 9.00028C14.7879 9.00024 14.286 9.00019 14.0839 9.00015C15.5311 9.00003 15.3384 8.99999 14.8799 9C14.4203 9.00001 13.6937 9.00007 14.0839 9.00015C13.8888 9.00017 13.6639 9.00019 13.4058 9.00021C12.7719 9.00028 12.294 9.43726 12.3001 10.0071Z" fill="#AAAACF"/>
</svg>
