<svg width="17" height="17" viewBox="0 0 17 17" fill="none" xmlns="http://www.w3.org/2000/svg">
<path fill-rule="evenodd" clip-rule="evenodd" d="M1.21418 0C1.54923 0 1.83541 0.118704 2.07255 0.355679C2.30956 0.592987 2.42806 0.879132 2.42806 1.21418C2.42806 1.66939 2.22587 2.01713 1.82105 2.25753V16.6965C1.82105 16.7788 1.79105 16.8499 1.73095 16.91C1.67089 16.9702 1.59976 17 1.51757 17H0.91056C0.828368 17 0.757205 16.97 0.697172 16.91C0.636973 16.8499 0.607007 16.7788 0.607007 16.6965V2.25753C0.202258 2.01727 0 1.66943 0 1.21418C0 0.879032 0.118637 0.592854 0.355679 0.355679C0.592854 0.118803 0.878999 0 1.21418 0ZM15.7832 1.21431C15.9477 1.21431 16.09 1.27441 16.2103 1.39458C16.3303 1.51468 16.3904 1.65684 16.3903 1.82119V9.05836C16.3903 9.21663 16.3508 9.33829 16.2717 9.42364C16.1926 9.50905 16.068 9.5959 15.8971 9.68437C14.5376 10.418 13.3709 10.7847 12.397 10.7847C12.0114 10.7847 11.6209 10.715 11.2255 10.5762C10.8303 10.437 10.4874 10.2851 10.1964 10.1207C9.90553 9.95646 9.54032 9.80463 9.10082 9.6655C8.66148 9.52646 8.21095 9.45689 7.74939 9.45689C6.53528 9.45689 5.06825 9.91849 3.34826 10.8418C3.24065 10.8986 3.13646 10.9271 3.03533 10.9271C2.87092 10.9271 2.72852 10.867 2.60852 10.7467C2.48836 10.6268 2.42816 10.4843 2.42816 10.3199V3.28201C2.42816 3.07962 2.52623 2.90583 2.72231 2.76032C2.8551 2.67181 3.10483 2.53583 3.47171 2.35245C4.96399 1.59365 6.29505 1.21431 7.46494 1.21431C8.14159 1.21431 8.77387 1.30594 9.36191 1.48929C9.95015 1.67268 10.6423 1.95095 11.439 2.32407C11.6795 2.44417 11.9577 2.50427 12.274 2.50427C12.6153 2.50427 12.9869 2.43793 13.3884 2.30507C13.7898 2.17221 14.1379 2.02371 14.4317 1.85929C14.7257 1.69491 15.004 1.54637 15.2664 1.41351C15.5288 1.28066 15.7011 1.21431 15.7832 1.21431Z" fill="#0EAD69"/>
</svg>
