<svg width="20" height="20" viewBox="0 0 20 20" fill="none" xmlns="http://www.w3.org/2000/svg">
<path fill-rule="evenodd" clip-rule="evenodd" d="M1.29206 4.24624C2.90644 1.59851 5.791 -0.0122701 8.89743 0.000213651C12.4661 0.0264406 15.6595 2.18626 17.0172 5.45992C17.7478 6.02551 18.381 6.72585 18.8765 7.53854C20.2805 9.84122 20.3747 12.7097 19.1249 15.0993L18.9835 15.375C18.9294 15.4763 18.919 15.5856 18.9503 15.6867C19.1523 16.2204 19.3297 16.7967 19.4713 17.3823L19.4863 17.5084C19.4863 18.0972 19.1722 18.5017 18.5487 18.4879L18.4449 18.4754C17.8785 18.3503 17.3207 18.1892 16.7749 17.993C16.7026 17.9747 16.5841 17.9818 16.4771 18.0255L15.9521 18.3227C15.9509 18.3263 15.9501 18.3291 15.9446 18.3323L15.9093 18.3446C13.2174 19.7601 9.95815 19.4558 7.58168 17.604C6.59422 17.4636 5.62067 17.1551 4.70428 16.6732L4.66376 16.659C4.65744 16.6553 4.65642 16.6522 4.65506 16.648L4.05128 16.3063C3.92831 16.256 3.79204 16.2478 3.70884 16.2689C3.08121 16.4945 2.43975 16.6798 1.7884 16.8237L1.66901 16.838C0.951985 16.8539 0.590707 16.3887 0.590707 15.7116L0.607994 15.5665C0.770821 14.8931 0.974883 14.2303 1.20713 13.6166C1.24315 13.5004 1.23116 13.3747 1.169 13.2582L1.00639 12.9412C-0.430912 10.1931 -0.322521 6.89432 1.29206 4.24624ZM14.6844 15.4877C16.9666 13.4829 18.0276 10.4866 17.599 7.56506C17.7271 7.73553 17.8477 7.91306 17.96 8.0973C19.1679 10.0784 19.249 12.5461 18.1718 14.6057L18.0327 14.8771C17.8476 15.2235 17.8088 15.6294 17.9355 16.0347C18.1323 16.5574 18.2968 17.0917 18.428 17.6345L18.3556 17.3518L18.0517 17.2724C17.8433 17.2149 17.6338 17.1514 17.421 17.0812L17.099 16.9706C16.7588 16.8769 16.3972 16.8985 16.0409 17.0454C16.0222 17.0544 16.0024 17.0643 15.9813 17.0751L15.8396 17.151L15.4315 17.384L15.4175 17.3879L15.427 17.3866L15.2056 17.4975C13.4686 18.3362 11.4835 18.3649 9.75801 17.6438C11.5449 17.4563 13.2732 16.7274 14.6844 15.4877ZM8.88893 1.23371L8.64047 1.2376C6.06399 1.31132 3.69184 2.68145 2.34596 4.88882C0.956867 7.16707 0.863623 10.0049 2.1024 12.3734L2.26245 12.6856C2.47531 13.0839 2.51985 13.5508 2.37421 14.0168C2.14788 14.6179 1.95871 15.2324 1.80777 15.8566L1.89102 15.5315L2.24049 15.4402C2.48021 15.3741 2.72112 15.3011 2.96587 15.2203L3.33618 15.0931C3.72736 14.9853 4.14327 15.0103 4.55299 15.1791C4.63899 15.2206 4.7457 15.2782 4.88022 15.3542L5.25381 15.5686L5.26991 15.573L5.259 15.5715L5.51354 15.6991C8.18996 16.9914 11.3785 16.6113 13.675 14.7258L13.8697 14.5604C16.2438 12.4749 17.0819 9.14313 15.9766 6.18554C14.8711 3.22762 12.0512 1.25776 8.88893 1.23371ZM3.9583 8.84634C3.9583 8.28884 4.41057 7.83732 4.96796 7.83732C5.52536 7.83732 5.97763 8.28884 5.97763 8.84634C5.97763 9.40383 5.52536 9.85536 4.96796 9.85536C4.41057 9.85536 3.9583 9.40383 3.9583 8.84634ZM7.88323 8.84634C7.88323 8.28884 8.3355 7.83732 8.89289 7.83732C9.45029 7.83732 9.90256 8.28884 9.90256 8.84634C9.90256 9.40383 9.45029 9.85536 8.89289 9.85536C8.3355 9.85536 7.88323 9.40383 7.88323 8.84634ZM12.8178 7.83732C12.2604 7.83732 11.8082 8.28884 11.8082 8.84634C11.8082 9.40383 12.2604 9.85536 12.8178 9.85536C13.3752 9.85536 13.8275 9.40383 13.8275 8.84634C13.8275 8.28884 13.3752 7.83732 12.8178 7.83732Z" fill="#AAAACF"/>
</svg>
