<svg width="21" height="21" viewBox="0 0 21 21" fill="none" xmlns="http://www.w3.org/2000/svg">
<path fill-rule="evenodd" clip-rule="evenodd" d="M10.5143 18.6116H11.3792C13.2793 18.6115 15.1795 18.6114 17.0795 18.6115C17.8771 18.6116 18.4952 18.0589 18.4967 17.317C18.5018 14.8473 18.5012 12.3776 18.4936 9.90796C18.4924 9.48361 18.3062 9.10699 18.0012 8.82832C15.8108 6.82639 13.6028 4.84348 11.4155 2.83808C10.8595 2.32833 10.0443 2.44335 9.57551 2.86245C8.85753 3.50418 8.14807 4.15537 7.43477 4.8023C5.94509 6.15341 4.45845 7.50788 2.9622 8.85159C2.73086 9.05936 2.56886 9.28666 2.53193 9.59374C2.51239 9.75587 2.50157 9.92004 2.50141 10.0833C2.49958 12.4285 2.49994 14.7738 2.50026 17.119C2.50042 18.0548 3.05555 18.6114 3.98837 18.6115C6.16366 18.6117 8.33896 18.6116 10.5143 18.6116ZM10.0893 0H10.9096C10.9404 0.0127091 10.9702 0.0325397 11.0022 0.0371413C11.7354 0.142923 12.3629 0.468265 12.9064 0.961291C15.2044 3.0458 17.4968 5.13662 19.7997 7.21582C20.6104 7.9478 21.0026 8.84483 21 9.93256C20.9941 12.3723 20.998 14.8121 20.9983 17.252C20.9984 17.4706 20.9902 17.6876 20.9592 17.9053C20.7084 19.665 19.2925 21.0068 17.4789 20.9999C12.824 20.9822 8.16895 20.9944 3.51393 20.9938C1.91129 20.9935 0.538818 19.9396 0.119335 18.3892C0.0771462 18.2333 0.0396689 18.076 0 17.9194V9.4312C0.0130403 9.39291 0.0320529 9.3555 0.0381895 9.31611C0.164593 8.503 0.53679 7.82246 1.14459 7.2706C3.46067 5.16773 5.77802 3.06618 8.09421 0.963428C8.4051 0.681198 8.75077 0.455446 9.13355 0.281627C9.44005 0.14243 9.76902 0.0877586 10.0893 0Z" fill="#AAAACF"/>
</svg>
