<svg width="19" height="21" viewBox="0 0 19 21" fill="none" xmlns="http://www.w3.org/2000/svg">
<path fill-rule="evenodd" clip-rule="evenodd" d="M8.9966 10C11.7615 10.0007 13.9995 7.76658 14 5.0052C14.0005 2.24721 11.7573 0.000495073 9.00235 0C6.24459 -0.000618265 4.0008 2.24164 4 4.99889C3.99913 7.76275 6.23364 9.9992 8.9966 10ZM18.993 16.3337C18.9918 16.4579 18.9931 16.5821 18.9949 16.7064C18.9985 16.8321 19.0002 16.9578 18.9996 17.0834C19.0018 17.3882 18.9959 17.693 18.9525 17.9973C18.8579 18.6616 18.5183 19.2881 18.0265 19.7948C17.9084 19.918 17.7811 20.0331 17.6453 20.1397C17.6319 20.1504 17.6183 20.1608 17.6047 20.1713C17.5849 20.1864 17.5652 20.2015 17.5451 20.2162C17.0142 20.6104 16.377 20.8815 15.705 20.9631C15.5562 20.9811 15.4078 20.9898 15.2594 20.9941C15.2546 20.9944 15.2498 20.9945 15.2449 20.9946C15.2406 20.9947 15.2362 20.9949 15.2319 20.995L15.1672 20.9964C15.157 20.9966 15.1467 20.9969 15.1364 20.9972C15.1119 20.9979 15.0874 20.9985 15.0626 20.9986C14.9453 20.9987 14.828 20.9987 14.7107 20.9987C14.6169 20.9987 14.523 20.9987 14.4292 20.9987C13.1911 21.0002 11.953 21.0001 10.7149 20.9999C10.3099 20.9998 9.90499 20.9998 9.50003 20.9998C9.09505 20.9998 8.69008 20.9998 8.28511 20.9999C7.04701 21.0001 5.80893 21.0002 4.57085 20.9987C4.47701 20.9987 4.38315 20.9987 4.2893 20.9987C4.17199 20.9987 4.05468 20.9987 3.93741 20.9986C3.91265 20.9985 3.88809 20.9979 3.86353 20.9972C3.85329 20.9969 3.84304 20.9966 3.83278 20.9964L3.76811 20.995C3.76394 20.9949 3.75977 20.9948 3.75559 20.9946C3.75058 20.9945 3.74557 20.9944 3.74058 20.9941C3.59223 20.9898 3.44376 20.9811 3.29499 20.9631C2.623 20.8815 1.98587 20.6105 1.45495 20.2163C1.43603 20.2024 1.41743 20.1882 1.39879 20.1739L1.39521 20.1712L1.38775 20.1654C1.37671 20.1569 1.36564 20.1484 1.35472 20.1397C1.21869 20.0329 1.09099 19.9174 0.972623 19.7939C0.481319 19.2874 0.142006 18.6612 0.047466 17.9973C0.00409836 17.693 -0.00182875 17.3883 0.000401253 17.0834C-0.000126905 16.9578 0.00151625 16.8321 0.00509599 16.7065C0.0069152 16.5822 0.00826494 16.4579 0.00697389 16.3337C-0.00188743 15.4692 0.299104 14.6921 0.837825 13.9898C1.58306 13.0183 2.63315 12.4169 3.80643 11.9708C4.79326 11.5957 5.80955 11.3486 6.84686 11.1966C6.88218 11.1912 6.91751 11.186 6.95284 11.1808L6.97344 11.1779C7.79337 11.0586 8.61988 10.9994 9.45173 11.0001L9.50003 11L9.54827 11.0001C10.3802 10.9994 11.2066 11.0586 12.0266 11.1779L12.0472 11.1808C12.0825 11.186 12.1178 11.1912 12.1531 11.1966C13.1904 11.3486 14.2067 11.5957 15.1936 11.9708C16.3668 12.4169 17.4169 13.0183 18.1622 13.9898C18.7009 14.6921 19.0019 15.4692 18.993 16.3337Z" fill="#0062FF"/>
</svg>
