<svg width="49" height="72" viewBox="0 0 49 72" fill="none" xmlns="http://www.w3.org/2000/svg">
<g clip-path="url(#clip0_0_532)">
<rect x="0.5" width="48" height="48" rx="20" fill="#0EAD69"/>
<path fill-rule="evenodd" clip-rule="evenodd" d="M20.9658 16.2362C20.7428 16.5375 20.7684 16.9673 21.0502 17.24C21.3502 17.54 21.8402 17.54 22.1402 17.24L23.7302 15.64V19.78H25.2702V15.64L26.8602 17.24L26.9464 17.3144C27.2477 17.5375 27.6775 17.5127 27.9502 17.24C28.1002 17.09 28.1802 16.89 28.1802 16.69C28.1802 16.5 28.1002 16.3 27.9502 16.15L25.0402 13.23L24.9495 13.1485C24.8202 13.0512 24.6602 13 24.5002 13C24.2902 13 24.1002 13.08 23.9502 13.23L21.0402 16.15L20.9658 16.2362ZM18.7312 19.7851C16.3779 19.8963 14.5 21.8758 14.5 24.2875V29.2526L14.5048 29.4651C14.6141 31.8599 16.5603 33.7802 18.95 33.7802H30.06L30.2688 33.7753C32.6221 33.6641 34.5 31.6843 34.5 29.2628V24.3078L34.4951 24.0945C34.3853 21.6909 32.43 19.7802 30.05 19.7802H25.27V25.8849L25.2629 25.9922C25.2112 26.3776 24.885 26.6683 24.5 26.6683C24.07 26.6683 23.73 26.3224 23.73 25.8849V19.7802H18.94L18.7312 19.7851Z" fill="white"/>
<path d="M10.6627 58.728V59.832H8.29872V67.2H6.91872V59.832H4.56672V58.728H10.6627ZM14.7075 60.504C15.3475 60.504 15.9235 60.64 16.4355 60.912C16.9475 61.184 17.3475 61.576 17.6355 62.088C17.9235 62.6 18.0675 63.2 18.0675 63.888C18.0675 64.584 17.9235 65.188 17.6355 65.7C17.3475 66.212 16.9475 66.604 16.4355 66.876C15.9235 67.148 15.3475 67.284 14.7075 67.284C14.0675 67.284 13.4915 67.148 12.9795 66.876C12.4755 66.604 12.0755 66.212 11.7795 65.7C11.4915 65.18 11.3475 64.576 11.3475 63.888C11.3475 63.2 11.4915 62.6 11.7795 62.088C12.0755 61.576 12.4755 61.184 12.9795 60.912C13.4915 60.64 14.0675 60.504 14.7075 60.504ZM14.7075 61.692C14.3555 61.692 14.0315 61.772 13.7355 61.932C13.4395 62.092 13.1995 62.34 13.0155 62.676C12.8395 63.004 12.7515 63.408 12.7515 63.888C12.7515 64.376 12.8395 64.784 13.0155 65.112C13.1995 65.44 13.4395 65.684 13.7355 65.844C14.0315 66.004 14.3555 66.084 14.7075 66.084C15.0595 66.084 15.3835 66.004 15.6795 65.844C15.9755 65.684 16.2115 65.44 16.3875 65.112C16.5715 64.784 16.6635 64.376 16.6635 63.888C16.6635 63.408 16.5715 63.004 16.3875 62.676C16.2115 62.34 15.9755 62.092 15.6795 61.932C15.3835 61.772 15.0595 61.692 14.7075 61.692ZM23.1747 60.504C23.7507 60.504 24.2627 60.64 24.7107 60.912C25.1667 61.184 25.5227 61.576 25.7787 62.088C26.0347 62.6 26.1627 63.2 26.1627 63.888C26.1627 64.584 26.0347 65.188 25.7787 65.7C25.5227 66.212 25.1667 66.604 24.7107 66.876C24.2627 67.148 23.7507 67.284 23.1747 67.284C22.5747 67.284 22.0627 67.136 21.6387 66.84C21.2147 66.544 20.9187 66.152 20.7507 65.664V70.344H19.3827V60.588H20.7507V62.124C20.9187 61.636 21.2147 61.244 21.6387 60.948C22.0627 60.652 22.5747 60.504 23.1747 60.504ZM22.7547 61.704C22.3707 61.704 22.0267 61.796 21.7227 61.98C21.4187 62.156 21.1787 62.412 21.0027 62.748C20.8267 63.076 20.7387 63.456 20.7387 63.888C20.7387 64.328 20.8267 64.712 21.0027 65.04C21.1787 65.368 21.4187 65.624 21.7227 65.808C22.0267 65.984 22.3707 66.072 22.7547 66.072C23.3627 66.072 23.8507 65.88 24.2187 65.496C24.5867 65.104 24.7707 64.568 24.7707 63.888C24.7707 63.216 24.5867 62.684 24.2187 62.292C23.8507 61.9 23.3627 61.704 22.7547 61.704ZM31.6008 58.728V63.756C31.6008 64.508 31.7648 65.068 32.0928 65.436C32.4288 65.804 32.8968 65.988 33.4968 65.988C34.0888 65.988 34.5488 65.804 34.8768 65.436C35.2128 65.068 35.3808 64.508 35.3808 63.756V58.728H36.7488V63.756C36.7488 64.916 36.4488 65.796 35.8488 66.396C35.2488 66.988 34.4568 67.284 33.4728 67.284C32.4968 67.284 31.7128 66.988 31.1208 66.396C30.5288 65.796 30.2328 64.916 30.2328 63.756V58.728H31.6008ZM42.1356 60.504C42.7116 60.504 43.2236 60.64 43.6716 60.912C44.1276 61.184 44.4836 61.576 44.7396 62.088C44.9956 62.6 45.1236 63.2 45.1236 63.888C45.1236 64.584 44.9956 65.188 44.7396 65.7C44.4836 66.212 44.1276 66.604 43.6716 66.876C43.2236 67.148 42.7116 67.284 42.1356 67.284C41.5356 67.284 41.0236 67.136 40.5996 66.84C40.1756 66.544 39.8796 66.152 39.7116 65.664V70.344H38.3436V60.588H39.7116V62.124C39.8796 61.636 40.1756 61.244 40.5996 60.948C41.0236 60.652 41.5356 60.504 42.1356 60.504ZM41.7156 61.704C41.3316 61.704 40.9876 61.796 40.6836 61.98C40.3796 62.156 40.1396 62.412 39.9636 62.748C39.7876 63.076 39.6996 63.456 39.6996 63.888C39.6996 64.328 39.7876 64.712 39.9636 65.04C40.1396 65.368 40.3796 65.624 40.6836 65.808C40.9876 65.984 41.3316 66.072 41.7156 66.072C42.3236 66.072 42.8116 65.88 43.1796 65.496C43.5476 65.104 43.7316 64.568 43.7316 63.888C43.7316 63.216 43.5476 62.684 43.1796 62.292C42.8116 61.9 42.3236 61.704 41.7156 61.704Z" fill="#898F95"/>
</g>
<defs>
<clipPath id="clip0_0_532">
<rect width="49" height="72" fill="white"/>
</clipPath>
</defs>
</svg>
