<svg width="23" height="21" viewBox="0 0 23 21" fill="none" xmlns="http://www.w3.org/2000/svg">
<path fill-rule="evenodd" clip-rule="evenodd" d="M19.6016 7.76098C19.5997 7.91988 19.6463 7.92492 19.7704 7.86398C20.4222 7.54433 20.8364 7.0377 20.9468 6.31385C21.0353 5.73391 20.9889 5.14627 20.9792 4.56263C20.9731 4.19188 20.6753 3.92563 20.3023 3.90735C20.1372 3.89919 19.9707 3.91568 19.8063 3.9022C19.6495 3.88929 19.597 3.93269 19.6001 4.10103C19.6113 4.69995 19.6045 5.29933 19.6045 5.89848C19.6045 6.51933 19.6087 7.14019 19.6016 7.76098ZM3.39923 4.57886C3.39831 3.85567 3.39676 3.85567 2.66187 3.93414C2.32074 3.97052 2.03469 4.21701 2.02817 4.55424C2.01652 5.15738 1.95373 5.76703 2.06496 6.36394C2.20277 7.10374 2.65645 7.60328 3.39964 7.90368C3.39964 6.76896 3.40068 5.67388 3.39923 4.57886ZM8.89933 20.9988C8.34251 20.9976 7.95689 20.5177 7.96191 19.999C7.96678 19.4966 8.35218 19.1146 8.89859 19.1126C9.39552 19.1108 9.70147 19.1037 10.198 19.1165C10.3849 19.1213 10.4285 19.0581 10.4244 18.8846C10.4133 18.4292 10.4131 18.1124 10.4246 17.657C10.4288 17.4937 10.3774 17.4532 10.2157 17.4268C7.3137 16.9517 5.42912 15.3908 4.19304 12.7467C3.88265 12.0828 3.69877 11.3772 3.61048 10.6514C3.58924 10.4763 3.53237 10.4168 3.35977 10.3681C1.61828 9.87683 0.526845 8.75557 0.0943127 7.01152C-0.00548532 6.60927 0.000415523 6.19782 0.0128073 5.7882C0.0323538 5.14268 -0.0558638 4.49293 0.0656936 3.85194C0.292286 2.65653 1.38018 1.7646 2.61065 1.75305C2.91425 1.7502 3.21815 1.74633 3.52152 1.7551C3.65038 1.7589 3.71227 1.71477 3.76781 1.59861C4.27868 0.53003 5.12714 -0.00196082 6.32966 8.47396e-05C9.81713 0.00592918 13.3047 -0.00502915 16.7921 0.00366446C17.9009 0.00644057 18.6941 0.547344 19.1805 1.52052C19.2741 1.70798 19.3721 1.75875 19.5713 1.75795C20.0745 1.75597 20.5796 1.70491 21.0777 1.85518C22.1995 2.19372 22.9851 3.19955 22.9754 4.35931C22.9686 5.16 23.0618 5.96785 22.9244 6.76086C22.6004 8.62926 21.4864 9.81963 19.6605 10.3578C19.4776 10.4117 19.399 10.4662 19.375 10.6724C18.9851 14.0178 16.3784 16.8959 13.0201 17.3905C12.5904 17.4539 12.5902 17.4539 12.5905 17.8958C12.5908 18.2694 12.6034 18.5043 12.5878 18.8773C12.5794 19.0775 12.6535 19.1181 12.8391 19.1139C13.3357 19.1026 13.619 19.1093 14.116 19.1127C14.6468 19.1165 15.0316 19.5201 15.0265 20.0262C15.0217 20.5168 14.6373 20.9966 14.1168 20.9984C13.2426 21.0015 12.3684 20.9993 11.4943 20.9993C10.6293 20.9993 9.76432 21.0007 8.89933 20.9988Z" fill="#0062FF"/>
</svg>
