<svg width="23" height="21" viewBox="0 0 23 21" fill="none" xmlns="http://www.w3.org/2000/svg">
<path fill-rule="evenodd" clip-rule="evenodd" d="M19.6016 7.76086C19.5997 7.91976 19.6463 7.92479 19.7704 7.86386C20.4222 7.5442 20.8364 7.03758 20.9468 6.31373C21.0353 5.73379 20.9889 5.14615 20.9792 4.56251C20.9731 4.19176 20.6753 3.92551 20.3023 3.90723C20.1372 3.89907 19.9707 3.91556 19.8063 3.90208C19.6495 3.88917 19.597 3.93257 19.6001 4.10091C19.6113 4.69983 19.6045 5.29921 19.6045 5.89836C19.6045 6.51921 19.6087 7.14006 19.6016 7.76086ZM3.39923 4.57873C3.39831 3.85555 3.39676 3.85555 2.66187 3.93402C2.32074 3.9704 2.03469 4.21689 2.02817 4.55412C2.01652 5.15726 1.95373 5.7669 2.06496 6.36382C2.20277 7.10362 2.65645 7.60316 3.39964 7.90356C3.39964 6.76884 3.40068 5.67376 3.39923 4.57873ZM6.70548 2.20032C6.05055 2.20046 5.72104 2.52757 5.7209 3.17754C5.72042 5.25433 5.72145 7.33105 5.72 9.40777C5.71973 9.80167 5.75389 10.1915 5.81718 10.5804C6.32956 13.7303 9.58582 15.906 12.7268 15.1946C15.4721 14.5729 17.3098 12.2998 17.3166 9.50827C17.3218 7.39736 17.3195 5.28639 17.3195 3.17548C17.3196 2.51825 16.9984 2.20046 16.3351 2.20032C14.7388 2.19963 13.1425 2.20011 11.5462 2.20011C9.93262 2.20011 8.31898 2.1997 6.70548 2.20032ZM8.89933 20.9987C8.34251 20.9975 7.95689 20.5176 7.96191 19.9989C7.96678 19.4965 8.35218 19.1144 8.89859 19.1125C9.39552 19.1106 9.70147 19.1036 10.198 19.1163C10.3849 19.1212 10.4285 19.058 10.4244 18.8845C10.4133 18.429 10.4131 18.1123 10.4246 17.6568C10.4288 17.4936 10.3774 17.4531 10.2157 17.4266C7.3137 16.9516 5.42912 15.3907 4.19304 12.7466C3.88265 12.0827 3.69877 11.3771 3.61048 10.6513C3.58924 10.4762 3.53237 10.4167 3.35977 10.368C1.61828 9.87671 0.526845 8.75545 0.0943127 7.01139C-0.00548532 6.60915 0.000415523 6.1977 0.0128073 5.78808C0.0323538 5.14256 -0.0558638 4.49281 0.0656936 3.85182C0.292286 2.65641 1.38018 1.76447 2.61065 1.75293C2.91425 1.75008 3.21815 1.74621 3.52152 1.75498C3.65038 1.75877 3.71227 1.71465 3.76781 1.59849C4.27868 0.529908 5.12714 -0.00208289 6.32966 -3.73307e-05C9.81713 0.00580711 13.3047 -0.00515122 16.7921 0.00354239C17.9009 0.0063185 18.6941 0.547222 19.1805 1.52039C19.2741 1.70785 19.3721 1.75863 19.5713 1.75783C20.0745 1.75585 20.5796 1.70479 21.0777 1.85506C22.1995 2.1936 22.9851 3.19943 22.9754 4.35919C22.9686 5.15988 23.0618 5.96772 22.9244 6.76074C22.6004 8.62914 21.4864 9.8195 19.6605 10.3577C19.4776 10.4115 19.399 10.466 19.375 10.6723C18.9851 14.0176 16.3784 16.8957 13.0201 17.3904C12.5904 17.4537 12.5902 17.4537 12.5905 17.8957C12.5908 18.2693 12.6034 18.5042 12.5878 18.8772C12.5794 19.0774 12.6535 19.1179 12.8391 19.1138C13.3357 19.1025 13.619 19.1092 14.116 19.1126C14.6468 19.1163 15.0316 19.52 15.0265 20.0261C15.0217 20.5167 14.6373 20.9965 14.1168 20.9983C13.2426 21.0014 12.3684 20.9992 11.4943 20.9992C10.6293 20.9992 9.76432 21.0006 8.89933 20.9987Z" fill="#AAAACF"/>
</svg>
