<svg width="60" height="72" viewBox="0 0 60 72" fill="none" xmlns="http://www.w3.org/2000/svg">
<g clip-path="url(#clip0_0_527)">
<rect x="5.5" y="0.199951" width="48" height="48" rx="20" fill="#CD2B37"/>
<path fill-rule="evenodd" clip-rule="evenodd" d="M28.7301 19.7905V15.7815C28.7301 15.3552 29.0701 15 29.5001 15C29.8851 15 30.2113 15.2985 30.263 15.6766L30.2701 15.7815V19.7905L35.05 19.7908C37.43 19.7908 39.3853 21.7398 39.4951 24.1704L39.5 24.3861V29.4254C39.5 31.873 37.6127 33.8822 35.268 33.995L35.06 34H23.94C21.56 34 19.6141 32.0608 19.5048 29.6213L19.5 29.4047L19.5 24.3758C19.5 21.9281 21.3779 19.9092 23.722 19.7958L23.93 19.7908H28.73V26.1932L27.13 24.541C26.83 24.2312 26.34 24.2312 26.04 24.541C25.89 24.6959 25.82 24.9024 25.82 25.1089C25.82 25.2659 25.8648 25.4295 25.9595 25.5679L26.04 25.6666L28.95 28.6819C29.09 28.8368 29.29 28.9194 29.5 28.9194C29.6667 28.9194 29.8333 28.862 29.9653 28.7533L30.04 28.6819L32.95 25.6666C33.25 25.3568 33.25 24.8508 32.95 24.541C32.6773 24.2594 32.2475 24.2338 31.9462 24.4642L31.86 24.541L30.27 26.1932V19.7908L28.7301 19.7905Z" fill="white"/>
<path d="M12.2533 58.728L10.1413 67.2H8.46127L6.67327 60.648L4.88527 67.2H3.20527L1.09327 58.728H2.59327L4.05727 65.616L5.91727 58.728H7.42927L9.28927 65.616L10.7533 58.728H12.2533ZM13.2864 58.668C13.2864 58.436 13.3664 58.244 13.5264 58.092C13.6864 57.94 13.8984 57.864 14.1624 57.864C14.4264 57.864 14.6384 57.94 14.7984 58.092C14.9664 58.244 15.0504 58.436 15.0504 58.668C15.0504 58.9 14.9664 59.088 14.7984 59.232C14.6384 59.376 14.4264 59.448 14.1624 59.448C13.8984 59.448 13.6864 59.376 13.5264 59.232C13.3664 59.088 13.2864 58.9 13.2864 58.668ZM14.8464 60.588V67.2H13.4784V60.588H14.8464ZM19.8258 66.012V67.2H18.9858C18.2818 67.2 17.7458 67.032 17.3778 66.696C17.0178 66.352 16.8378 65.784 16.8378 64.992V61.752H15.8898V60.588H16.8378V58.944H18.2178V60.588H19.8138V61.752H18.2178V65.016C18.2178 65.392 18.2858 65.652 18.4218 65.796C18.5658 65.94 18.8138 66.012 19.1658 66.012H19.8258ZM24.8033 60.48C25.5713 60.48 26.1873 60.728 26.6513 61.224C27.1153 61.72 27.3473 62.428 27.3473 63.348V67.2H25.9793V63.492C25.9793 62.9 25.8273 62.444 25.5233 62.124C25.2193 61.796 24.8033 61.632 24.2753 61.632C23.7313 61.632 23.2953 61.808 22.9673 62.16C22.6393 62.504 22.4753 63.012 22.4753 63.684V67.2H21.1073V58.32H22.4753V62.04C22.6513 61.544 22.9473 61.16 23.3633 60.888C23.7793 60.616 24.2593 60.48 24.8033 60.48ZM31.5991 60.504C32.1991 60.504 32.7111 60.652 33.1351 60.948C33.5591 61.244 33.8551 61.636 34.0231 62.124V58.32H35.4031V67.2H34.0231V65.664C33.8551 66.152 33.5591 66.544 33.1351 66.84C32.7111 67.136 32.1991 67.284 31.5991 67.284C31.0231 67.284 30.5071 67.148 30.0511 66.876C29.6031 66.604 29.2511 66.212 28.9951 65.7C28.7391 65.188 28.6111 64.584 28.6111 63.888C28.6111 63.2 28.7391 62.6 28.9951 62.088C29.2511 61.576 29.6031 61.184 30.0511 60.912C30.5071 60.64 31.0231 60.504 31.5991 60.504ZM32.0191 61.704C31.4111 61.704 30.9231 61.9 30.5551 62.292C30.1951 62.676 30.0151 63.208 30.0151 63.888C30.0151 64.568 30.1951 65.104 30.5551 65.496C30.9231 65.88 31.4111 66.072 32.0191 66.072C32.4031 66.072 32.7471 65.984 33.0511 65.808C33.3551 65.624 33.5951 65.368 33.7711 65.04C33.9471 64.712 34.0351 64.328 34.0351 63.888C34.0351 63.456 33.9471 63.076 33.7711 62.748C33.5951 62.412 33.3551 62.156 33.0511 61.98C32.7471 61.796 32.4031 61.704 32.0191 61.704ZM38.4128 61.884C38.6368 61.452 38.9568 61.112 39.3728 60.864C39.7888 60.608 40.2688 60.48 40.8128 60.48V61.968H40.4048C39.8048 61.968 39.3208 62.116 38.9528 62.412C38.5928 62.7 38.4128 63.18 38.4128 63.852V67.2H37.0448V60.588H38.4128V61.884ZM44.4898 60.504C45.0898 60.504 45.6018 60.652 46.0258 60.948C46.4498 61.244 46.7498 61.636 46.9258 62.124V60.588H48.2938V67.2H46.9258V65.664C46.7498 66.152 46.4498 66.544 46.0258 66.84C45.6018 67.136 45.0898 67.284 44.4898 67.284C43.9138 67.284 43.3978 67.148 42.9418 66.876C42.4938 66.604 42.1418 66.212 41.8858 65.7C41.6298 65.188 41.5018 64.584 41.5018 63.888C41.5018 63.2 41.6298 62.6 41.8858 62.088C42.1418 61.576 42.4938 61.184 42.9418 60.912C43.3978 60.64 43.9138 60.504 44.4898 60.504ZM44.9098 61.704C44.3018 61.704 43.8138 61.9 43.4458 62.292C43.0858 62.676 42.9058 63.208 42.9058 63.888C42.9058 64.568 43.0858 65.104 43.4458 65.496C43.8138 65.88 44.3018 66.072 44.9098 66.072C45.2938 66.072 45.6378 65.984 45.9418 65.808C46.2458 65.624 46.4858 65.368 46.6618 65.04C46.8378 64.712 46.9258 64.328 46.9258 63.888C46.9258 63.456 46.8378 63.076 46.6618 62.748C46.4858 62.412 46.2458 62.156 45.9418 61.98C45.6378 61.796 45.2938 61.704 44.9098 61.704ZM59.1994 60.588L57.3634 67.2H55.8514L54.2194 62.088L52.5634 67.2H51.0634L49.2274 60.588H50.6074L51.8674 65.94L53.5234 60.588H54.9634L56.6434 65.94L57.9034 60.588H59.1994Z" fill="#898F95"/>
</g>
<defs>
<clipPath id="clip0_0_527">
<rect width="59" height="72" fill="white" transform="translate(0.5)"/>
</clipPath>
</defs>
</svg>
