<svg width="12" height="12" viewBox="0 0 12 12" fill="none" xmlns="http://www.w3.org/2000/svg">
<path fill-rule="evenodd" clip-rule="evenodd" d="M0.347856 11.6093C0.70907 11.9643 1.22856 11.9913 1.55339 11.667L5.99988 7.22031L10.4258 11.6461C10.7742 11.9948 11.2888 11.977 11.6618 11.5995C12.0255 11.2312 12.0442 10.7197 11.7055 10.3809C10.5219 9.19718 8.92105 7.59622 7.27252 5.94763L11.6982 1.52177C12.047 1.17341 12.0291 0.658788 11.6516 0.285776C11.2834 -0.0779282 10.7718 -0.0966558 10.433 0.242128C9.24934 1.42567 7.64843 3.02646 5.99987 4.67495C4.34913 3.02418 2.74566 1.42078 1.56044 0.235774C1.22725 -0.097322 0.697903 -0.0702646 0.338269 0.295718C-0.0166782 0.656932 -0.04374 1.17642 0.280595 1.50125L4.72715 5.94764C3.07636 7.59841 1.47293 9.2019 0.287912 10.3871C-0.0451839 10.7203 -0.0181265 11.2497 0.347856 11.6093Z" fill="#0062FF"/>
</svg>
